<svg width="306" height="306" viewBox="0 0 306 306" fill="none" xmlns="http://www.w3.org/2000/svg">
<circle cx="151.634" cy="162.562" r="95.8982" fill="#FEF6EE"/>
<circle cx="61.7461" cy="97.8115" r="6.01071" fill="#FEF6EE"/>
<circle cx="219.937" cy="58.7408" r="11.2018" fill="#FEF6EE"/>
<circle cx="63.6585" cy="224.308" r="10.6554" fill="#FEF6EE"/>
<circle cx="254.362" cy="213.929" r="10.6554" fill="#FEF6EE"/>
<circle cx="233.598" cy="225.949" r="5.19107" fill="#FEF6EE"/>
<path d="M259.366 181.047L261.04 188.952L268.832 190.65L261.04 192.347L259.366 200.253L257.693 192.347L249.901 190.65L257.693 188.952L259.366 181.047Z" fill="white"/>
<path d="M249.359 100.338C249.481 99.7604 250.306 99.7604 250.428 100.338L251.494 105.372C251.538 105.583 251.702 105.747 251.912 105.793L256.909 106.882C257.482 107.007 257.482 107.824 256.909 107.949L251.912 109.038C251.702 109.084 251.538 109.248 251.494 109.459L250.428 114.493C250.306 115.071 249.481 115.071 249.359 114.493L248.294 109.459C248.249 109.248 248.085 109.084 247.875 109.038L242.879 107.949C242.305 107.824 242.305 107.007 242.879 106.882L247.875 105.793C248.085 105.747 248.249 105.583 248.294 105.372L249.359 100.338Z" fill="#F9AF78"/>
<path d="M50.9392 166.455C51.0615 165.878 51.8861 165.878 52.0084 166.455L53.835 175.085C53.8795 175.295 54.0432 175.46 54.2533 175.506L62.7937 177.366C63.3672 177.491 63.3672 178.309 62.7937 178.434L54.2533 180.294C54.0432 180.34 53.8795 180.505 53.835 180.715L52.0084 189.345C51.8861 189.922 51.0615 189.922 50.9392 189.345L49.1126 180.715C49.0681 180.505 48.9044 180.34 48.6943 180.294L40.1539 178.434C39.5804 178.309 39.5804 177.491 40.1539 177.366L48.6943 175.506C48.9044 175.46 49.0681 175.295 49.1126 175.085L50.9392 166.455Z" fill="#F9AF78"/>
<path d="M84.9827 74.6083C84.6659 74.5409 84.6659 74.0888 84.9827 74.0214L89.7725 73.0028C89.8879 72.9783 89.9783 72.8883 90.0033 72.773L91.0346 68.0169C91.103 67.7017 91.5526 67.7017 91.621 68.0169L92.6523 72.773C92.6773 72.8883 92.7676 72.9783 92.8831 73.0028L97.6729 74.0214C97.9897 74.0888 97.9897 74.5409 97.6729 74.6083L92.8831 75.6268C92.7676 75.6514 92.6773 75.7414 92.6523 75.8567L91.621 80.6128C91.5526 80.928 91.103 80.928 91.0346 80.6128L90.0033 75.8567C89.9783 75.7414 89.8879 75.6514 89.7725 75.6268L84.9827 74.6083Z" fill="#F9AF78"/>
<circle cx="171.578" cy="127.317" r="60.7464" fill="#FEE9D6" stroke="#F9AF78" stroke-width="2"/>
<circle cx="171.578" cy="127.317" r="50.9107" fill="#FEF6EE" stroke="#F9AF78" stroke-width="2"/>
<path d="M92.4795 239.675L125.261 194.145L126.718 193.053L129.996 192.324H134.731L137.281 194.145L139.831 195.238L142.016 197.788L143.837 201.794L115.427 255.338L112.148 257.159H108.142L102.678 255.338L98.3073 253.516L94.3007 248.053L92.4795 245.867V239.675Z" fill="#F9AF78"/>
<path d="M150.029 184.312L141.719 197.789" stroke="#F9AF78" stroke-width="2"/>
<path d="M140.262 179.941L132.249 191.961" stroke="#F9AF78" stroke-width="2"/>
<path d="M127.446 192.324L92.115 240.768" stroke="#F9AF78" stroke-width="2"/>
<path d="M143.473 201.066L115.063 256.066" stroke="#F9AF78" stroke-width="2"/>
<path d="M126.718 193.055L127.317 192.721C128.629 191.99 130.136 191.689 131.628 191.858V191.858C132.237 191.927 132.835 192.074 133.407 192.294L134.434 192.69L134.78 192.806C136.708 193.448 138.46 194.531 139.897 195.969V195.969L141.027 197.098C141.486 197.557 141.887 198.071 142.222 198.628V198.628C142.613 199.28 142.908 199.984 143.099 200.72L143.473 202.161" stroke="#F9AF78" stroke-width="2"/>
<path d="M115.791 255.34L114.239 256.038C112.737 256.714 111.116 257.088 109.469 257.14V257.14C108.19 257.18 106.912 257.025 105.679 256.68L104.635 256.388L104.284 256.269C101.188 255.218 98.3675 253.483 96.0336 251.193V251.193L94.6843 249.869C93.6293 248.834 92.8386 247.56 92.379 246.155V246.155C91.8071 244.408 91.7708 242.53 92.2745 240.761L92.4795 240.042" stroke="#F9AF78" stroke-width="2"/>
</svg>
