<svg width="25" height="24" viewBox="0 0 25 24" fill="none" xmlns="http://www.w3.org/2000/svg">
<path d="M19.8999 2.4375H7.1499C6.40398 2.4375 5.68861 2.73382 5.16116 3.26126C4.63372 3.78871 4.3374 4.50408 4.3374 5.25V21C4.3374 21.1492 4.39667 21.2923 4.50215 21.3977C4.60764 21.5032 4.75072 21.5625 4.8999 21.5625H18.3999C18.5491 21.5625 18.6922 21.5032 18.7977 21.3977C18.9031 21.2923 18.9624 21.1492 18.9624 21C18.9624 20.8508 18.9031 20.7077 18.7977 20.6023C18.6922 20.4968 18.5491 20.4375 18.3999 20.4375H5.4624V20.25C5.4624 19.8024 5.64019 19.3732 5.95666 19.0568C6.27313 18.7403 6.70235 18.5625 7.1499 18.5625H19.8999C20.0491 18.5625 20.1922 18.5032 20.2977 18.3977C20.4031 18.2923 20.4624 18.1492 20.4624 18V3C20.4624 2.85082 20.4031 2.70774 20.2977 2.60225C20.1922 2.49676 20.0491 2.4375 19.8999 2.4375ZM19.3374 17.4375H7.1499C6.54122 17.4366 5.94882 17.6341 5.4624 18V5.25C5.4624 4.80245 5.64019 4.37323 5.95666 4.05676C6.27313 3.74029 6.70235 3.5625 7.1499 3.5625H19.3374V17.4375Z" fill="#96989B"/>
</svg>
