<svg width="25" height="24" viewBox="0 0 25 24" fill="none" xmlns="http://www.w3.org/2000/svg">
<path d="M20.2502 10.0003C20.2502 9.8014 20.1711 9.61064 20.0305 9.46999C19.8898 9.32933 19.6991 9.25032 19.5002 9.25032C19.3012 9.25032 19.1105 9.32933 18.9698 9.46999C18.8292 9.61064 18.7502 9.8014 18.7502 10.0003H20.2502ZM6.25015 10.0003C6.25015 9.8014 6.17114 9.61064 6.03048 9.46999C5.88983 9.32933 5.69907 9.25032 5.50015 9.25032C5.30124 9.25032 5.11048 9.32933 4.96982 9.46999C4.82917 9.61064 4.75015 9.8014 4.75015 10.0003H6.25015ZM20.9702 12.5303C21.0388 12.604 21.1216 12.6631 21.2136 12.7041C21.3056 12.7451 21.4049 12.7671 21.5056 12.7689C21.6063 12.7707 21.7064 12.7522 21.7998 12.7144C21.8931 12.6767 21.978 12.6206 22.0492 12.5494C22.1204 12.4781 22.1766 12.3933 22.2143 12.2999C22.252 12.2065 22.2705 12.1065 22.2687 12.0058C22.267 11.9051 22.2449 11.8058 22.2039 11.7138C22.1629 11.6218 22.1038 11.539 22.0302 11.4703L20.9702 12.5303ZM12.5002 3.00032L13.0302 2.47032C12.8895 2.32987 12.6989 2.25098 12.5002 2.25098C12.3014 2.25098 12.1108 2.32987 11.9702 2.47032L12.5002 3.00032ZM2.97015 11.4703C2.89647 11.539 2.83736 11.6218 2.79637 11.7138C2.75538 11.8058 2.73334 11.9051 2.73156 12.0058C2.72979 12.1065 2.74831 12.2065 2.78603 12.2999C2.82375 12.3933 2.8799 12.4781 2.95112 12.5494C3.02233 12.6206 3.10717 12.6767 3.20056 12.7144C3.29394 12.7522 3.39397 12.7707 3.49468 12.7689C3.59538 12.7671 3.69469 12.7451 3.78669 12.7041C3.87869 12.6631 3.96149 12.604 4.03015 12.5303L2.97015 11.4703ZM7.50015 21.7503H17.5002V20.2503H7.50015V21.7503ZM20.2502 19.0003V10.0003H18.7502V19.0003H20.2502ZM6.25015 19.0003V10.0003H4.75015V19.0003H6.25015ZM22.0302 11.4703L13.0302 2.47032L11.9702 3.53032L20.9702 12.5303L22.0302 11.4703ZM11.9702 2.47032L2.97015 11.4703L4.03015 12.5303L13.0302 3.53032L11.9702 2.47032ZM17.5002 21.7503C18.2295 21.7503 18.929 21.4606 19.4447 20.9449C19.9604 20.4291 20.2502 19.7297 20.2502 19.0003H18.7502C18.7502 19.6903 18.1902 20.2503 17.5002 20.2503V21.7503ZM7.50015 20.2503C6.81015 20.2503 6.25015 19.6903 6.25015 19.0003H4.75015C4.75015 19.7297 5.03989 20.4291 5.55561 20.9449C6.07133 21.4606 6.77081 21.7503 7.50015 21.7503V20.2503Z" fill="#F26522"/>
</svg>
